<svg width="90" height="100" viewBox="0 0 90 100" fill="none" xmlns="http://www.w3.org/2000/svg">
<path d="M85 100H5C3.67392 100 2.40215 99.4732 1.46447 98.5355C0.526784 97.5979 0 96.3261 0 95V5C0 3.67392 0.526784 2.40215 1.46447 1.46447C2.40215 0.526784 3.67392 0 5 0H85C86.3261 0 87.5979 0.526784 88.5355 1.46447C89.4732 2.40215 90 3.67392 90 5V95C90 96.3261 89.4732 97.5979 88.5355 98.5355C87.5979 99.4732 86.3261 100 85 100ZM80 90V10H10V90H80ZM20 20H40V40H20V20ZM20 50H70V60H20V50ZM20 70H70V80H20V70ZM50 25H70V35H50V25Z" fill="black"/>
</svg>
