<svg width="83" height="35" viewBox="0 0 83 35" fill="none" xmlns="http://www.w3.org/2000/svg">
<path d="M6.625 11.8672C6.3281 11.8672 5.9844 11.9219 5.5938 12.0312C5.2031 12.125 4.7969 12.2422 4.375 12.3828C3.9531 12.5078 3.5312 12.625 3.1094 12.7344C2.7031 12.8281 2.3359 12.875 2.0078 12.875C1.6641 12.875 1.3906 12.8203 1.1875 12.7109C1 12.5859 0.859385 12.4297 0.765625 12.2422C0.671885 12.0547 0.617194 11.8516 0.601564 11.6328C0.585944 11.4141 0.578125 11.2031 0.578125 11C0.578125 10.4062 0.750004 9.92191 1.0938 9.54691C1.4531 9.17191 1.9609 8.85941 2.6172 8.60941C3.2734 8.34381 4.0625 8.12501 4.9844 7.95311C5.9219 7.76561 6.9766 7.56251 8.1484 7.34381C9.9922 7.00001 11.6719 6.73441 13.1875 6.54691C14.7188 6.35941 16.1719 6.22661 17.5469 6.14841C18.9375 6.05471 20.2969 6.00001 21.625 5.98441C22.9531 5.96881 24.3516 5.96091 25.8203 5.96091C26.2578 5.96091 26.6016 6.01561 26.8516 6.12501C27.1016 6.23441 27.2812 6.37501 27.3906 6.54691C27.5156 6.71881 27.5859 6.91411 27.6016 7.13281C27.6328 7.35161 27.6484 7.57031 27.6484 7.78911C27.6484 8.03911 27.6094 8.31251 27.5312 8.60941C27.4688 8.89061 27.3516 9.15621 27.1797 9.40621C27.0234 9.64061 26.8047 9.83591 26.5234 9.99221C26.2578 10.1484 25.9297 10.2266 25.5391 10.2266H23.6641C22.9141 10.2266 22.1172 10.2344 21.2734 10.25C20.4297 10.25 19.5938 10.2656 18.7656 10.2969C17.9375 10.3125 17.1406 10.3438 16.375 10.3906C15.625 10.4375 14.9531 10.5078 14.3594 10.6016C13.7812 10.6797 13.3203 10.7812 12.9766 10.9062C12.6328 11.0312 12.4609 11.1875 12.4609 11.375C12.4609 11.5625 12.5312 11.875 12.6719 12.3125C12.8125 12.75 12.9844 13.2266 13.1875 13.7422C13.3906 14.2422 13.5938 14.7422 13.7969 15.2422C14.0156 15.7266 14.1953 16.1328 14.3359 16.4609C14.4609 16.7266 14.6016 16.9062 14.7578 17C14.9141 17.0938 15.125 17.1406 15.3906 17.1406C16.0312 17.1406 16.6875 17.1016 17.3594 17.0234C18.0312 16.9453 18.7031 16.8594 19.375 16.7656C20.0625 16.6562 20.7422 16.5625 21.4141 16.4844C22.1016 16.4062 22.7812 16.3672 23.4531 16.3672C23.8281 16.3672 24.1328 16.4375 24.3672 16.5781C24.6172 16.7031 24.8125 16.8672 24.9531 17.0703C25.0938 17.2578 25.1875 17.4609 25.2344 17.6797C25.2969 17.8984 25.3281 18.0859 25.3281 18.2422C25.3281 18.9453 25.1094 19.4766 24.6719 19.8359C24.2344 20.1797 23.6406 20.4375 22.8906 20.6094C22.1406 20.7812 21.2656 20.8984 20.2656 20.9609C19.2812 21.0234 18.2344 21.1094 17.125 21.2188L16.5625 21.2656C16.3594 21.2969 16.2031 21.3672 16.0938 21.4766C15.9844 21.5859 15.9297 21.7266 15.9297 21.8984C15.9297 21.9453 15.9375 21.9844 15.9531 22.0156C15.9688 22.0469 15.9766 22.0859 15.9766 22.1328C16.1172 22.6484 16.2812 23.2266 16.4688 23.8672C16.6562 24.4922 16.8281 25.1172 16.9844 25.7422C17.1562 26.3672 17.2969 26.9609 17.4062 27.5234C17.5156 28.0859 17.5703 28.5469 17.5703 28.9062C17.5703 29.625 17.2969 30.1719 16.75 30.5469C16.2188 30.9219 15.4609 31.1094 14.4766 31.1094C14.1172 31.1094 13.7656 31.0234 13.4219 30.8516C13.0938 30.6953 12.8906 30.3984 12.8125 29.9609C12.5625 28.6797 12.2812 27.4297 11.9688 26.2109C11.6562 24.9766 11.3281 23.75 10.9844 22.5312C10.8438 22.1094 10.5703 21.8984 10.1641 21.8984C9.69531 21.8984 9.1641 21.8828 8.5703 21.8516C7.9922 21.8203 7.3984 21.7578 6.7891 21.6641C6.1797 21.5703 5.5859 21.4531 5.0078 21.3125C4.4453 21.1562 3.9375 20.9531 3.4844 20.7031C3.0469 20.4531 2.68751 20.1562 2.40621 19.8125C2.14061 19.4688 2.0078 19.0625 2.0078 18.5938C2.0078 18.2969 2.0781 18.0078 2.2188 17.7266C2.3594 17.4297 2.5391 17.1719 2.7578 16.9531C2.9766 16.7188 3.21091 16.5312 3.46091 16.3906C3.72661 16.25 3.97661 16.1797 4.21091 16.1797C4.49221 16.1797 4.7969 16.25 5.125 16.3906C5.4531 16.5312 5.8047 16.6875 6.1797 16.8594C6.5547 17.0312 6.9531 17.1875 7.375 17.3281C7.8125 17.4688 8.28121 17.5391 8.78121 17.5391C9.03121 17.5391 9.15621 17.4062 9.15621 17.1406C9.15621 16.8906 9.1094 16.5625 9.0156 16.1562C8.9375 15.75 8.8281 15.3281 8.6875 14.8906C8.5469 14.4375 8.3828 14 8.1953 13.5781C8.0234 13.1406 7.8359 12.7734 7.6328 12.4766C7.5078 12.2891 7.375 12.1406 7.2344 12.0312C7.1094 11.9219 6.9062 11.8672 6.625 11.8672ZM43.2344 11.8672C43.2969 11.8984 43.3906 11.9141 43.5156 11.9141C43.8594 11.9141 44.0312 11.6875 44.0312 11.2344V3.94531C44.0312 3.02341 44.2344 2.36721 44.6406 1.97661C45.0625 1.58591 45.7578 1.39061 46.7266 1.39061C47.7109 1.39061 48.4062 1.59381 48.8125 2.00001C49.2188 2.40621 49.4219 3.10161 49.4219 4.08591C49.4219 4.46091 49.3984 5.01561 49.3516 5.75001C49.3047 6.46881 49.25 7.28911 49.1875 8.21091C49.1406 9.13281 49.0938 10.125 49.0469 11.1875C49 12.2344 48.9766 13.2734 48.9766 14.3047C48.9766 15.8984 49.0859 17.2734 49.3047 18.4297C49.5234 19.5859 49.8359 20.5469 50.2422 21.3125C50.6484 22.0625 51.1328 22.625 51.6953 23C52.2578 23.3594 52.8906 23.5391 53.5938 23.5391C53.9844 23.5391 54.3359 23.4922 54.6484 23.3984C54.9766 23.2891 55.3594 23.2344 55.7969 23.2344C56.1094 23.2344 56.3672 23.3984 56.5703 23.7266C56.7891 24.0391 56.8984 24.4219 56.8984 24.875C56.8984 25.2812 56.7734 25.6641 56.5234 26.0234C56.2891 26.3828 55.9609 26.6953 55.5391 26.9609C55.1328 27.2266 54.6562 27.4375 54.1094 27.5938C53.5625 27.7344 52.9922 27.8047 52.3984 27.8047C51.1172 27.8047 49.9453 27.4141 48.8828 26.6328C47.8203 25.8359 47.0234 24.625 46.4922 23C46.4453 22.75 46.3672 22.625 46.2578 22.625C46.1328 22.625 46.0312 22.75 45.9531 23C45.5312 24.1406 44.9766 25.1719 44.2891 26.0938C43.6172 27 42.8281 27.7812 41.9219 28.4375C41.0312 29.0781 40.0469 29.5703 38.9688 29.9141C37.9062 30.2578 36.7812 30.4297 35.5938 30.4297C34.3438 30.4297 33.1953 30.2188 32.1484 29.7969C31.1172 29.3906 30.2266 28.8203 29.4766 28.0859C28.7266 27.3359 28.1406 26.4609 27.7188 25.4609C27.2969 24.4453 27.0859 23.3516 27.0859 22.1797C27.0859 20.6797 27.3984 19.2656 28.0234 17.9375C28.6484 16.6094 29.4922 15.4531 30.5547 14.4688C31.6328 13.4688 32.8828 12.6797 34.3047 12.1016C35.7266 11.5234 37.2422 11.2344 38.8516 11.2344C39.5078 11.2344 40.2031 11.2891 40.9375 11.3984C41.6719 11.4922 42.4375 11.6484 43.2344 11.8672ZM36.5078 26.2109C37.3984 26.2109 38.1875 26.0156 38.875 25.625C39.5781 25.2344 40.1953 24.7422 40.7266 24.1484C41.2734 23.5391 41.7344 22.875 42.1094 22.1562C42.4844 21.4219 42.7891 20.7109 43.0234 20.0234C43.2578 19.3359 43.4297 18.7188 43.5391 18.1719C43.6484 17.625 43.7031 17.2344 43.7031 17C43.7031 16.8281 43.6562 16.6797 43.5625 16.5547C43.4688 16.4141 43.3281 16.3047 43.1406 16.2266C42.7188 16.1172 42.2812 16.0234 41.8281 15.9453C41.375 15.8516 40.9297 15.7734 40.4922 15.7109C40.0547 15.6484 39.6328 15.6016 39.2266 15.5703C38.8359 15.5391 38.4766 15.5234 38.1484 15.5234C37.2109 15.5234 36.3594 15.6641 35.5938 15.9453C34.8281 16.2266 34.1719 16.625 33.625 17.1406C33.0938 17.6562 32.6797 18.2734 32.3828 18.9922C32.0859 19.6953 31.9375 20.4688 31.9375 21.3125C31.9375 22.0625 32.0469 22.7422 32.2656 23.3516C32.5 23.9453 32.8125 24.4531 33.2031 24.875C33.6094 25.2969 34.0938 25.625 34.6562 25.8594C35.2188 26.0938 35.8359 26.2109 36.5078 26.2109ZM59.1953 5.09381C58.7422 5.09381 58.3125 5.03121 57.9062 4.90621C57.5156 4.76561 57.1719 4.57811 56.875 4.34381C56.5938 4.09381 56.3672 3.80471 56.1953 3.47661C56.0234 3.14841 55.9375 2.78911 55.9375 2.39841C55.9375 1.74221 56.1953 1.21091 56.7109 0.804714C57.2422 0.398414 57.9453 0.195312 58.8203 0.195312C59.2266 0.195312 59.6172 0.273414 59.9922 0.429714C60.3672 0.570314 60.6953 0.765614 60.9766 1.01561C61.2734 1.26561 61.5078 1.56251 61.6797 1.90621C61.8516 2.23441 61.9375 2.57811 61.9375 2.93751C61.9375 3.60941 61.6875 4.14061 61.1875 4.53121C60.7031 4.90621 60.0391 5.09381 59.1953 5.09381ZM55.9844 12.2422C55.9844 11.6953 56.2188 11.25 56.6875 10.9062C57.1719 10.5469 57.8047 10.3672 58.5859 10.3672C59.9922 10.3672 60.7422 10.8516 60.8359 11.8203C60.8984 12.4922 60.9609 13.25 61.0234 14.0938C61.1016 14.9375 61.1719 15.8359 61.2344 16.7891C61.3125 17.7266 61.375 18.7031 61.4219 19.7188C61.4844 20.7188 61.5391 21.7109 61.5859 22.6953C61.6328 23.6641 61.6719 24.6016 61.7031 25.5078C61.7344 26.4141 61.75 27.2422 61.75 27.9922C61.75 28.7734 61.4688 29.3594 60.9062 29.75C60.3594 30.1406 59.5547 30.3359 58.4922 30.3359C58.0078 30.3359 57.625 30.2188 57.3438 29.9844C57.0781 29.7656 56.9453 29.4375 56.9453 29C56.9453 26.8438 56.8906 24.8281 56.7812 22.9531C56.6875 21.0625 56.5781 19.3828 56.4531 17.9141C56.3438 16.4453 56.2344 15.2266 56.125 14.2578C56.0312 13.2734 55.9844 12.6016 55.9844 12.2422ZM71.9219 8.65621C72.9688 8.65621 74.0469 8.79691 75.1562 9.07811C76.2656 9.34381 77.2812 9.69531 78.2031 10.1328C79.125 10.5547 79.8828 11.0312 80.4766 11.5625C81.0703 12.0938 81.3672 12.6094 81.3672 13.1094C81.3672 13.3594 81.2578 13.6406 81.0391 13.9531C80.8203 14.25 80.5547 14.5391 80.2422 14.8203C79.9297 15.0859 79.5859 15.3125 79.2109 15.5C78.8516 15.6719 78.5312 15.7578 78.25 15.7578C77.875 15.7578 77.4531 15.6016 76.9844 15.2891C76.5312 14.9766 76.0234 14.6328 75.4609 14.2578C74.9141 13.8672 74.3125 13.5156 73.6562 13.2031C73 12.8906 72.2891 12.7344 71.5234 12.7344C71.0234 12.7344 70.6094 12.8594 70.2812 13.1094C69.9688 13.3438 69.8125 13.6797 69.8125 14.1172C69.8125 14.5078 70 14.9062 70.375 15.3125C70.75 15.7031 71.2422 16.1094 71.8516 16.5312C72.4766 16.9531 73.1797 17.3984 73.9609 17.8672C74.7422 18.3359 75.5391 18.8359 76.3516 19.3672C77.1797 19.8984 77.9844 20.4766 78.7656 21.1016C79.5469 21.7266 80.2422 22.4062 80.8516 23.1406C81.4766 23.875 81.9766 24.6797 82.3516 25.5547C82.7266 26.4141 82.9141 27.3516 82.9141 28.3672C82.9141 29.2422 82.7578 30.0391 82.4453 30.7578C82.1328 31.4766 81.6875 32.0938 81.1094 32.6094C80.5312 33.125 79.8438 33.5234 79.0469 33.8047C78.25 34.0859 77.375 34.2266 76.4219 34.2266C75.2188 34.2266 74.1094 34.0391 73.0938 33.6641C72.0781 33.3047 71.2031 32.8047 70.4688 32.1641C69.7344 31.5234 69.1562 30.7578 68.7344 29.8672C68.3281 28.9766 68.125 28 68.125 26.9375C68.125 25.5625 68.3672 24.5625 68.8516 23.9375C69.3516 23.3125 70.1328 23 71.1953 23C71.8516 23 72.375 23.125 72.7656 23.375C73.1562 23.625 73.3516 23.9297 73.3516 24.2891C73.3516 24.4766 73.3203 24.6719 73.2578 24.875C73.1953 25.0625 73.125 25.2656 73.0469 25.4844C72.9844 25.6875 72.9219 25.9062 72.8594 26.1406C72.8125 26.375 72.7891 26.6094 72.7891 26.8438C72.7891 27.25 72.8828 27.6406 73.0703 28.0156C73.2578 28.3906 73.5078 28.7188 73.8203 29C74.1484 29.2969 74.5234 29.5312 74.9453 29.7031C75.3672 29.875 75.8125 29.9609 76.2812 29.9609C77.5312 29.9609 78.1562 29.4453 78.1562 28.4141C78.1562 27.6016 77.8359 26.8359 77.1953 26.1172C76.5547 25.3828 75.75 24.6719 74.7812 23.9844C73.8125 23.2812 72.7656 22.5781 71.6406 21.875C70.5312 21.1719 69.4922 20.4375 68.5234 19.6719C67.5547 18.9062 66.75 18.0938 66.1094 17.2344C65.4688 16.3594 65.1484 15.4141 65.1484 14.3984C65.1484 13.5547 65.3203 12.7812 65.6641 12.0781C66.0234 11.375 66.5078 10.7734 67.1172 10.2734C67.7266 9.75781 68.4375 9.35941 69.25 9.07811C70.0781 8.79691 70.9688 8.65621 71.9219 8.65621Z" fill="black"/>
</svg>
